<svg xmlns="http://www.w3.org/2000/svg" xml:space="preserve" style="fill-rule:evenodd;clip-rule:evenodd;stroke-linejoin:round;stroke-miterlimit:2" viewBox="0 0 754 175"><path d="M146.369 8.542V2.309H96.387L48.482 70.183h-1.847V2.309H0v169.455h46.635v-39.939L63.719 110.7l33.014 61.064h51.368v-6.118L95.348 71.684zM154.766 171.764h110.816v-37.169h-64.181V2.309h-46.635zM273.201 165.646v6.118h43.172l9.927-35.438h51.137l8.773 35.438h45.942v-6.118L377.899 2.309h-51.253zm63.719-66.489 13.852-49.521h1.385l14.66 49.521zM439.717 171.764h46.635V73.877h1.731l47.097 97.887h55.639V2.309h-46.635v97.887h-1.732l-46.75-97.887h-55.985zM683.231 174.073c28.512 0 54.138-11.543 70.53-27.935V98.58c0-14.776-8.311-25.28-23.087-25.28h-51.598v37.169h30.243v19.278c-4.732 3.694-12.813 7.734-26.088 7.734-23.086 0-37.284-18.585-37.284-50.445 0-30.358 13.967-50.444 36.13-50.444 14.545 0 22.048 8.196 25.511 19.393l46.173-9.235C746.72 17.315 722.479 0 682.077 0c-51.021 0-85.189 36.246-85.189 87.036 0 50.906 36.823 87.037 86.343 87.037" style="fill-rule:nonzero"/></svg>