<?xml version="1.0" encoding="UTF-8" standalone="no"?>
<!DOCTYPE svg PUBLIC "-//W3C//DTD SVG 1.1//EN" "http://www.w3.org/Graphics/SVG/1.1/DTD/svg11.dtd">
<svg width="100%" height="100%" viewBox="0 0 119 119" version="1.1" xmlns="http://www.w3.org/2000/svg" xmlns:xlink="http://www.w3.org/1999/xlink" xml:space="preserve" xmlns:serif="http://www.serif.com/" style="fill-rule:evenodd;clip-rule:evenodd;stroke-linejoin:round;stroke-miterlimit:1.41421;">
    <rect id="Artboard1" x="0" y="0" width="118.11" height="118.11" style="fill:none;"/>
    <clipPath id="_clip1">
        <rect id="Artboard11" serif:id="Artboard1" x="0" y="0" width="118.11" height="118.11"/>
    </clipPath>
    <g clip-path="url(#_clip1)">
        <g id="Logo" transform="matrix(0.703085,0,0,0.703058,-151.87,-39.3747)">
            <path d="M216.006,139.016C216.536,93.079 253.938,56.005 300,56.005C346.061,56.005 383.464,93.079 383.994,139.016C383.445,139.019 383,139.466 383,140.016C383,140.565 383.445,141.012 383.994,141.016C383.453,186.939 346.054,224 300,224C253.945,224 216.547,186.939 216.006,141.016C216.555,141.012 217,140.565 217,140.016C217,139.466 216.555,139.019 216.006,139.016ZM256.436,180.946C256.988,180.946 257.436,181.394 257.436,181.946C257.436,182.498 256.988,182.946 256.436,182.946C255.884,182.946 255.436,182.498 255.436,181.946C255.436,181.394 255.884,180.946 256.436,180.946ZM260.372,180.706C260.924,180.706 261.372,181.154 261.372,181.706C261.372,182.258 260.924,182.706 260.372,182.706C259.82,182.706 259.372,182.258 259.372,181.706C259.372,181.154 259.82,180.706 260.372,180.706ZM252.587,180.057C253.139,180.057 253.587,180.505 253.587,181.057C253.587,181.609 253.139,182.057 252.587,182.057C252.035,182.057 251.587,181.609 251.587,181.057C251.587,180.505 252.035,180.057 252.587,180.057ZM263.896,178.945C264.447,178.945 264.896,179.393 264.896,179.945C264.896,180.497 264.447,180.945 263.896,180.945C263.344,180.945 262.896,180.497 262.896,179.945C262.896,179.393 263.344,178.945 263.896,178.945ZM249.222,177.996C249.774,177.996 250.222,178.444 250.222,178.996C250.222,179.548 249.774,179.996 249.222,179.996C248.67,179.996 248.222,179.548 248.222,178.996C248.222,178.444 248.67,177.996 249.222,177.996ZM266.704,176.16C267.256,176.16 267.704,176.609 267.704,177.16C267.704,177.712 267.256,178.16 266.704,178.16C266.152,178.16 265.704,177.712 265.704,177.16C265.704,176.609 266.152,176.16 266.704,176.16ZM246.635,175.007C247.187,175.007 247.635,175.455 247.635,176.007C247.635,176.559 247.187,177.007 246.635,177.007C246.083,177.007 245.635,176.559 245.635,176.007C245.635,175.455 246.083,175.007 246.635,175.007ZM268.929,172.884C269.481,172.884 269.929,173.332 269.929,173.884C269.929,174.436 269.481,174.884 268.929,174.884C268.377,174.884 267.929,174.436 267.929,173.884C267.929,173.332 268.377,172.884 268.929,172.884ZM244.727,171.537C245.279,171.537 245.727,171.985 245.727,172.537C245.727,173.089 245.279,173.537 244.727,173.537C244.175,173.537 243.727,173.089 243.727,172.537C243.727,171.985 244.175,171.537 244.727,171.537ZM270.757,169.367C271.309,169.367 271.757,169.815 271.757,170.367C271.757,170.919 271.309,171.367 270.757,171.367C270.205,171.367 269.757,170.919 269.757,170.367C269.757,169.815 270.205,169.367 270.757,169.367ZM243.244,167.861C243.796,167.861 244.244,168.31 244.244,168.861C244.244,169.413 243.796,169.861 243.244,169.861C242.692,169.861 242.244,169.413 242.244,168.861C242.244,168.31 242.692,167.861 243.244,167.861ZM272.316,165.723C272.868,165.723 273.316,166.171 273.316,166.723C273.316,167.275 272.868,167.723 272.316,167.723C271.764,167.723 271.316,167.275 271.316,166.723C271.316,166.171 271.764,165.723 272.316,165.723ZM241.972,164.106C242.524,164.106 242.972,164.555 242.972,165.106C242.972,165.658 242.524,166.106 241.972,166.106C241.421,166.106 240.972,165.658 240.972,165.106C240.972,164.555 241.421,164.106 241.972,164.106ZM273.69,162.004C274.242,162.004 274.69,162.452 274.69,163.004C274.69,163.556 274.242,164.004 273.69,164.004C273.138,164.004 272.69,163.556 272.69,163.004C272.69,162.452 273.138,162.004 273.69,162.004ZM240.752,160.334C241.304,160.334 241.752,160.782 241.752,161.334C241.752,161.886 241.304,162.334 240.752,162.334C240.2,162.334 239.752,161.886 239.752,161.334C239.752,160.782 240.2,160.334 240.752,160.334ZM274.938,158.241C275.49,158.241 275.938,158.689 275.938,159.241C275.938,159.793 275.49,160.241 274.938,160.241C274.386,160.241 273.938,159.793 273.938,159.241C273.938,158.689 274.386,158.241 274.938,158.241ZM239.45,156.59C240.002,156.59 240.45,157.038 240.45,157.59C240.45,158.142 240.002,158.59 239.45,158.59C238.898,158.59 238.45,158.142 238.45,157.59C238.45,157.038 238.898,156.59 239.45,156.59ZM276.103,154.452C276.655,154.452 277.103,154.9 277.103,155.452C277.103,156.004 276.655,156.452 276.103,156.452C275.551,156.452 275.103,156.004 275.103,155.452C275.103,154.9 275.551,154.452 276.103,154.452ZM237.937,152.927C238.489,152.927 238.937,153.375 238.937,153.927C238.937,154.479 238.489,154.927 237.937,154.927C237.385,154.927 236.937,154.479 236.937,153.927C236.937,153.375 237.385,152.927 237.937,152.927ZM277.221,150.648C277.773,150.648 278.221,151.097 278.221,151.648C278.221,152.2 277.773,152.648 277.221,152.648C276.669,152.648 276.221,152.2 276.221,151.648C276.221,151.097 276.669,150.648 277.221,150.648ZM310.121,150.571C310.673,150.571 311.121,151.02 311.121,151.571C311.121,152.123 310.673,152.571 310.121,152.571C309.569,152.571 309.121,152.123 309.121,151.571C309.121,151.02 309.569,150.571 310.121,150.571ZM313.774,149.494C314.326,149.494 314.774,149.942 314.774,150.494C314.774,151.046 314.326,151.494 313.774,151.494C313.222,151.494 312.774,151.046 312.774,150.494C312.774,149.942 313.222,149.494 313.774,149.494ZM236.083,149.425C236.635,149.425 237.083,149.873 237.083,150.425C237.083,150.977 236.635,151.425 236.083,151.425C235.531,151.425 235.083,150.977 235.083,150.425C235.083,149.873 235.531,149.425 236.083,149.425ZM306.753,148.567C307.305,148.567 307.753,149.015 307.753,149.567C307.753,150.118 307.305,150.567 306.753,150.567C306.202,150.567 305.753,150.118 305.753,149.567C305.753,149.015 306.202,148.567 306.753,148.567ZM278.329,146.842C278.881,146.842 279.329,147.29 279.329,147.842C279.329,148.394 278.881,148.842 278.329,148.842C277.777,148.842 277.329,148.394 277.329,147.842C277.329,147.29 277.777,146.842 278.329,146.842ZM316.159,146.35C316.711,146.35 317.159,146.798 317.159,147.35C317.159,147.902 316.711,148.35 316.159,148.35C315.607,148.35 315.159,147.902 315.159,147.35C315.159,146.798 315.607,146.35 316.159,146.35ZM233.764,146.215C234.315,146.215 234.764,146.663 234.764,147.215C234.764,147.767 234.315,148.215 233.764,148.215C233.212,148.215 232.764,147.767 232.764,147.215C232.764,146.663 233.212,146.215 233.764,146.215ZM304.143,145.589C304.695,145.589 305.143,146.037 305.143,146.589C305.143,147.141 304.695,147.589 304.143,147.589C303.592,147.589 303.143,147.141 303.143,146.589C303.143,146.037 303.592,145.589 304.143,145.589ZM230.907,143.476C231.458,143.476 231.907,143.924 231.907,144.476C231.907,145.027 231.458,145.476 230.907,145.476C230.355,145.476 229.907,145.027 229.907,144.476C229.907,143.924 230.355,143.476 230.907,143.476ZM279.463,143.043C280.015,143.043 280.463,143.491 280.463,144.043C280.463,144.595 280.015,145.043 279.463,145.043C278.911,145.043 278.463,144.595 278.463,144.043C278.463,143.491 278.911,143.043 279.463,143.043ZM317.852,142.768C318.404,142.768 318.852,143.216 318.852,143.768C318.852,144.32 318.404,144.768 317.852,144.768C317.3,144.768 316.852,144.32 316.852,143.768C316.852,143.216 317.3,142.768 317.852,142.768ZM301.922,142.307C302.474,142.307 302.922,142.755 302.922,143.307C302.922,143.859 302.474,144.307 301.922,144.307C301.37,144.307 300.922,143.859 300.922,143.307C300.922,142.755 301.37,142.307 301.922,142.307ZM227.551,141.377C228.103,141.377 228.551,141.825 228.551,142.377C228.551,142.929 228.103,143.377 227.551,143.377C226.999,143.377 226.551,142.929 226.551,142.377C226.551,141.825 226.999,141.377 227.551,141.377ZM223.846,139.985C224.398,139.985 224.846,140.433 224.846,140.985C224.846,141.536 224.398,141.985 223.846,141.985C223.294,141.985 222.846,141.536 222.846,140.985C222.846,140.433 223.294,139.985 223.846,139.985ZM280.673,139.268C281.225,139.268 281.673,139.716 281.673,140.268C281.673,140.819 281.225,141.268 280.673,141.268C280.121,141.268 279.673,140.819 279.673,140.268C279.673,139.716 280.121,139.268 280.673,139.268ZM219.956,139.237C220.508,139.237 220.956,139.685 220.956,140.237C220.956,140.789 220.508,141.237 219.956,141.237C219.404,141.237 218.956,140.789 218.956,140.237C218.956,139.685 219.404,139.237 219.956,139.237ZM319.23,139.051C319.782,139.051 320.23,139.499 320.23,140.051C320.23,140.603 319.782,141.051 319.23,141.051C318.678,141.051 318.23,140.603 318.23,140.051C318.23,139.499 318.678,139.051 319.23,139.051ZM299.926,138.882C300.478,138.882 300.926,139.33 300.926,139.882C300.926,140.434 300.478,140.882 299.926,140.882C299.374,140.882 298.926,140.434 298.926,139.882C298.926,139.33 299.374,138.882 299.926,138.882ZM380.046,138.77C380.598,138.77 381.046,139.218 381.046,139.77C381.046,140.321 380.598,140.77 380.046,140.77C379.494,140.77 379.046,140.321 379.046,139.77C379.046,139.218 379.494,138.77 380.046,138.77ZM376.173,137.942C376.725,137.942 377.173,138.39 377.173,138.942C377.173,139.494 376.725,139.942 376.173,139.942C375.621,139.942 375.173,139.494 375.173,138.942C375.173,138.39 375.621,137.942 376.173,137.942ZM372.521,136.417C373.073,136.417 373.521,136.866 373.521,137.417C373.521,137.969 373.073,138.417 372.521,138.417C371.969,138.417 371.521,137.969 371.521,137.417C371.521,136.866 371.969,136.417 372.521,136.417ZM282.035,135.545C282.587,135.545 283.035,135.993 283.035,136.545C283.035,137.097 282.587,137.545 282.035,137.545C281.483,137.545 281.035,137.097 281.035,136.545C281.035,135.993 281.483,135.545 282.035,135.545ZM297.917,135.465C298.469,135.465 298.917,135.913 298.917,136.465C298.917,137.017 298.469,137.465 297.917,137.465C297.365,137.465 296.917,137.017 296.917,136.465C296.917,135.913 297.365,135.465 297.917,135.465ZM320.449,135.279C321.001,135.279 321.449,135.727 321.449,136.279C321.449,136.831 321.001,137.279 320.449,137.279C319.897,137.279 319.449,136.831 319.449,136.279C319.449,135.727 319.897,135.279 320.449,135.279ZM369.265,134.169C369.817,134.169 370.265,134.617 370.265,135.169C370.265,135.721 369.817,136.169 369.265,136.169C368.713,136.169 368.265,135.721 368.265,135.169C368.265,134.617 368.713,134.169 369.265,134.169ZM295.673,132.198C296.225,132.198 296.673,132.646 296.673,133.198C296.673,133.75 296.225,134.198 295.673,134.198C295.121,134.198 294.673,133.75 294.673,133.198C294.673,132.646 295.121,132.198 295.673,132.198ZM283.694,131.947C284.246,131.947 284.694,132.395 284.694,132.947C284.694,133.499 284.246,133.947 283.694,133.947C283.142,133.947 282.694,133.499 282.694,132.947C282.694,132.395 283.142,131.947 283.694,131.947ZM321.586,131.481C322.138,131.481 322.586,131.929 322.586,132.481C322.586,133.033 322.138,133.481 321.586,133.481C321.035,133.481 320.586,133.033 320.586,132.481C320.586,131.929 321.035,131.481 321.586,131.481ZM366.528,131.309C367.079,131.309 367.528,131.757 367.528,132.309C367.528,132.861 367.079,133.309 366.528,133.309C365.976,133.309 365.528,132.861 365.528,132.309C365.528,131.757 365.976,131.309 366.528,131.309ZM293.022,129.259C293.573,129.259 294.022,129.707 294.022,130.259C294.022,130.811 293.573,131.259 293.022,131.259C292.47,131.259 292.022,130.811 292.022,130.259C292.022,129.707 292.47,129.259 293.022,129.259ZM286.002,128.742C286.554,128.742 287.002,129.19 287.002,129.742C287.002,130.294 286.554,130.742 286.002,130.742C285.45,130.742 285.002,130.294 285.002,129.742C285.002,129.19 285.45,128.742 286.002,128.742ZM364.306,128.03C364.858,128.03 365.306,128.478 365.306,129.03C365.306,129.582 364.858,130.03 364.306,130.03C363.754,130.03 363.306,129.582 363.306,129.03C363.306,128.478 363.754,128.03 364.306,128.03ZM322.694,127.675C323.246,127.675 323.694,128.123 323.694,128.675C323.694,129.226 323.246,129.675 322.694,129.675C322.143,129.675 321.694,129.226 321.694,128.675C321.694,128.123 322.143,127.675 322.694,127.675ZM289.58,127.404C290.132,127.404 290.58,127.852 290.58,128.404C290.58,128.956 290.132,129.404 289.58,129.404C289.028,129.404 288.58,128.956 288.58,128.404C288.58,127.852 289.028,127.404 289.58,127.404ZM362.505,124.5C363.057,124.5 363.505,124.948 363.505,125.5C363.505,126.052 363.057,126.5 362.505,126.5C361.953,126.5 361.505,126.052 361.505,125.5C361.505,124.948 361.953,124.5 362.505,124.5ZM323.811,123.871C324.363,123.871 324.811,124.319 324.811,124.871C324.811,125.422 324.363,125.871 323.811,125.871C323.259,125.871 322.811,125.422 322.811,124.871C322.811,124.319 323.259,123.871 323.811,123.871ZM360.996,120.835C361.548,120.835 361.996,121.283 361.996,121.835C361.996,122.387 361.548,122.835 360.996,122.835C360.444,122.835 359.996,122.387 359.996,121.835C359.996,121.283 360.444,120.835 360.996,120.835ZM324.971,120.08C325.523,120.08 325.971,120.528 325.971,121.08C325.971,121.631 325.523,122.08 324.971,122.08C324.419,122.08 323.971,121.631 323.971,121.08C323.971,120.528 324.419,120.08 324.971,120.08ZM359.654,117.104C360.206,117.104 360.654,117.552 360.654,118.104C360.654,118.656 360.206,119.104 359.654,119.104C359.102,119.104 358.654,118.656 358.654,118.104C358.654,117.552 359.102,117.104 359.654,117.104ZM326.211,116.314C326.763,116.314 327.211,116.762 327.211,117.314C327.211,117.866 326.763,118.314 326.211,118.314C325.659,118.314 325.211,117.866 325.211,117.314C325.211,116.762 325.659,116.314 326.211,116.314ZM358.358,113.357C358.91,113.357 359.358,113.806 359.358,114.357C359.358,114.909 358.91,115.357 358.358,115.357C357.806,115.357 357.358,114.909 357.358,114.357C357.358,113.806 357.806,113.357 358.358,113.357ZM327.574,112.591C328.126,112.591 328.574,113.039 328.574,113.591C328.574,114.143 328.126,114.591 327.574,114.591C327.022,114.591 326.574,114.143 326.574,113.591C326.574,113.039 327.022,112.591 327.574,112.591ZM356.98,109.641C357.532,109.641 357.98,110.089 357.98,110.641C357.98,111.192 357.532,111.641 356.98,111.641C356.428,111.641 355.98,111.192 355.98,110.641C355.98,110.089 356.428,109.641 356.98,109.641ZM329.116,108.939C329.668,108.939 330.116,109.388 330.116,109.939C330.116,110.491 329.668,110.939 329.116,110.939C328.564,110.939 328.116,110.491 328.116,109.939C328.116,109.388 328.564,108.939 329.116,108.939ZM355.363,106.022C355.915,106.022 356.363,106.47 356.363,107.022C356.363,107.574 355.915,108.022 355.363,108.022C354.811,108.022 354.363,107.574 354.363,107.022C354.363,106.47 354.811,106.022 355.363,106.022ZM330.919,105.41C331.471,105.41 331.919,105.858 331.919,106.41C331.919,106.962 331.471,107.41 330.919,107.41C330.367,107.41 329.919,106.962 329.919,106.41C329.919,105.858 330.367,105.41 330.919,105.41ZM353.303,102.64C353.855,102.64 354.303,103.088 354.303,103.64C354.303,104.192 353.855,104.64 353.303,104.64C352.751,104.64 352.303,104.192 352.303,103.64C352.303,103.088 352.751,102.64 353.303,102.64ZM333.107,102.109C333.659,102.109 334.107,102.557 334.107,103.109C334.107,103.66 333.659,104.109 333.107,104.109C332.556,104.109 332.107,103.66 332.107,103.109C332.107,102.557 332.556,102.109 333.107,102.109ZM350.577,99.777C351.129,99.777 351.577,100.226 351.577,100.777C351.577,101.329 351.129,101.777 350.577,101.777C350.025,101.777 349.577,101.329 349.577,100.777C349.577,100.226 350.025,99.777 350.577,99.777ZM335.863,99.272C336.415,99.272 336.863,99.72 336.863,100.272C336.863,100.824 336.415,101.272 335.863,101.272C335.312,101.272 334.863,100.824 334.863,100.272C334.863,99.72 335.312,99.272 335.863,99.272ZM347.132,97.851C347.684,97.851 348.132,98.299 348.132,98.851C348.132,99.403 347.684,99.851 347.132,99.851C346.58,99.851 346.132,99.403 346.132,98.851C346.132,98.299 346.58,97.851 347.132,97.851ZM339.335,97.406C339.887,97.406 340.335,97.854 340.335,98.406C340.335,98.958 339.887,99.406 339.335,99.406C338.783,99.406 338.335,98.958 338.335,98.406C338.335,97.854 338.783,97.406 339.335,97.406ZM343.26,97.059C343.812,97.059 344.26,97.507 344.26,98.059C344.26,98.611 343.812,99.059 343.26,99.059C342.708,99.059 342.26,98.611 342.26,98.059C342.26,97.507 342.708,97.059 343.26,97.059Z" style="fill:#1A1D1A;"/>
        </g>
    </g>
</svg>
